<svg width="12" height="14" viewBox="0 0 12 14" fill="none" xmlns="http://www.w3.org/2000/svg">
    <path d="M2.66667 6.33325H4V7.66659H2.66667V6.33325ZM12 2.99992V12.3333C12 13.0666 11.4 13.6666 10.6667 13.6666H1.33333C0.593333 13.6666 0 13.0666 0 12.3333L0.00666666 2.99992C0.00666666 2.26659 0.593333 1.66659 1.33333 1.66659H2V0.333252H3.33333V1.66659H8.66667V0.333252H10V1.66659H10.6667C11.4 1.66659 12 2.26659 12 2.99992ZM1.33333 4.33325H10.6667V2.99992H1.33333V4.33325ZM10.6667 12.3333V5.66659H1.33333V12.3333H10.6667ZM8 7.66659H9.33333V6.33325H8V7.66659ZM5.33333 7.66659H6.66667V6.33325H5.33333V7.66659Z" fill="white"/>
</svg>
